<svg xmlns="http://www.w3.org/2000/svg" viewBox="0 0 128 128">
<defs><linearGradient id="g" x1=".1" y1=".1" x2=".9" y2=".9"><stop stop-color="#B07BFF"/><stop offset=".55" stop-color="#6F6CFF"/><stop offset="1" stop-color="#4D9CFF"/></linearGradient></defs>
<g fill="url(#g)">
<path d="M64 12c9 19 9 34 0 45-9-11-9-26 0-45Z"/><path d="M64 116c-9-19-9-34 0-45 9 11 9 26 0 45Z"/>
<path d="M12 64c19-9 34-9 45 0-11 9-26 9-45 0Z"/><path d="M116 64c-19 9-34 9-45 0 11-9 26-9 45 0Z"/>
<path d="M27 27c20 7 31 18 30 32-14 1-25-10-32-30l2-2Z"/><path d="M101 101c-20-7-31-18-30-32 14-1 25 10 32 30l-2 2Z"/>
<path d="M101 27c-7 20-18 31-32 30-1-14 10-25 30-32l2 2Z"/><path d="M27 101c7-20 18-31 32-30 1 14-10 25-30 32l-2-2Z"/>
<circle cx="64" cy="64" r="7"/>
</g></svg>