<svg xmlns="http://www.w3.org/2000/svg" viewBox="0 0 128 128">
<defs>
  <linearGradient id="g1" x1="0" y1="0" x2="1" y2="1"><stop stop-color="#FF8A5C"/><stop offset="1" stop-color="#FF4FA3"/></linearGradient>
  <linearGradient id="g2" x1="1" y1="0" x2="0" y2="1"><stop stop-color="#FFD56A"/><stop offset="1" stop-color="#FF7A59"/></linearGradient>
</defs>
<path fill="url(#g1)" d="M22 28c19-5 34 3 42 19L52 64 20 58c2-11 2-20 2-30Z"/>
<path fill="url(#g2)" d="M106 28c-19-5-34 3-42 19l12 17 32-6c-2-11-2-20-2-30Z"/>
<path fill="#FFB45F" d="M20 70l32-6 12 17c-8 16-23 24-42 19 0-10 0-19-2-30Z"/>
<path fill="#FF6B91" d="M108 70l-32-6-12 17c8 16 23 24 42 19 0-10 0-19 2-30Z"/>
</svg>